<svg xmlns="http://www.w3.org/2000/svg" viewBox="0 0 566.93 566.93">
    <defs>
        <style>.cls-1{fill:#fff;}</style>
    </defs>
    <path class="cls-1"
          d="M566.93,231.62H501.1L222,510.74,56.19,344.94,335.31,65.83V0L6.82,328.49a23.27,23.27,0,0,0,0,32.92l198.7,198.7a23.27,23.27,0,0,0,32.92,0l47.7-47.7a141.7,141.7,0,0,0,200.17,0c55.18-55.19,55.18-145,0-200.17M453.4,479.5a95.13,95.13,0,0,1-134.35,0L453.4,345.15A95.13,95.13,0,0,1,453.4,479.5Z"/>
    <polygon class="cls-1" points="102.6 344.95 221.98 464.33 454.69 231.62 215.93 231.62 102.6 344.95"/>
</svg>
