<svg xmlns="http://www.w3.org/2000/svg" viewBox="0 0 566.93 566.93">
    <defs>
        <style>.cls-1{fill:#6b6;}.cls-2{fill:#fff;}</style>
    </defs>
    <circle class="cls-1" cx="283.46" cy="283.46" r="283.46"/>
    <path class="cls-2"
          d="M494,245H445.09L237.8,452.25,114.68,329.12,322,121.84V73L78,316.9a17.28,17.28,0,0,0,0,24.45L225.58,488.91a17.28,17.28,0,0,0,24.45,0l35.42-35.43A105.11,105.11,0,0,0,434.1,304.84M409.66,429a70.63,70.63,0,0,1-99.77,0l99.77-99.76A70.63,70.63,0,0,1,409.66,429Z"/>
    <polygon class="cls-2" points="147.83 329.09 236.49 417.75 409.31 244.93 232 244.93 147.83 329.09"/>
</svg>
