<svg xmlns="http://www.w3.org/2000/svg" viewBox="0 0 566.93 566.93">
    <path d="M309.89,429a70.54,70.54,0,0,0,99.77-99.76Z"/>
    <path d="M283.46,0C126.91,0,0,126.91,0,283.46S126.91,566.93,283.46,566.93,566.93,440,566.93,283.46,440,0,283.46,0ZM434.1,453.48a105.22,105.22,0,0,1-148.65,0L250,488.91a17.28,17.28,0,0,1-24.45,0L78,341.35a17.28,17.28,0,0,1,0-24.45L322,73v48.88L114.68,329.12,237.8,452.25,445.09,245H494L434.1,304.84A105.22,105.22,0,0,1,434.1,453.48ZM409.31,244.93,236.49,417.75l-88.66-88.66L232,244.93Z"/>
</svg>
